<svg xmlns="http://www.w3.org/2000/svg" viewBox="0 0 400 240" fill="none">
  <rect width="400" height="240" fill="#1e293b"/>
  <!-- Warehouse building -->
  <rect x="55" y="95" width="130" height="95" rx="6" fill="#334155" stroke="#14b8a6" stroke-width="1.5"/>
  <polygon points="55,95 120,55 185,95" fill="#475569" stroke="#14b8a6" stroke-width="1.5" stroke-linejoin="round"/>
  <rect x="105" y="135" width="30" height="55" rx="3" fill="#1e293b" stroke="#64748b"/>
  <rect x="70" y="115" width="22" height="18" rx="3" fill="#14b8a6" opacity="0.35"/>
  <rect x="148" y="115" width="22" height="18" rx="3" fill="#14b8a6" opacity="0.35"/>
  <!-- Inventory table -->
  <rect x="210" y="55" width="140" height="135" rx="10" fill="#334155" stroke="#64748b"/>
  <rect x="225" y="72" width="110" height="12" rx="3" fill="#475569"/>
  <rect x="225" y="92" width="110" height="10" rx="2" fill="#1e293b"/>
  <rect x="225" y="110" width="110" height="10" rx="2" fill="#1e293b"/>
  <rect x="225" y="128" width="110" height="10" rx="2" fill="#1e293b"/>
  <rect x="225" y="146" width="110" height="10" rx="2" fill="#1e293b"/>
  <rect x="225" y="164" width="70" height="10" rx="2" fill="#1e293b"/>
  <!-- Status badges -->
  <rect x="232" y="94" width="28" height="8" rx="2" fill="#14b8a6" opacity="0.8"/>
  <rect x="232" y="112" width="28" height="8" rx="2" fill="#f59e0b" opacity="0.8"/>
  <rect x="232" y="130" width="28" height="8" rx="2" fill="#14b8a6" opacity="0.5"/>
  <!-- Stacked boxes -->
  <rect x="70" y="175" width="28" height="22" rx="3" fill="#f59e0b" opacity="0.75"/>
  <rect x="102" y="175" width="28" height="22" rx="3" fill="#14b8a6" opacity="0.75"/>
  <rect x="134" y="175" width="28" height="22" rx="3" fill="#64748b"/>
  <!-- Weather widget -->
  <rect x="285" y="175" width="65" height="35" rx="8" fill="#1e293b" stroke="#14b8a6" stroke-width="1"/>
  <circle cx="305" cy="192" r="8" fill="#f59e0b" opacity="0.85"/>
  <rect x="318" y="186" width="22" height="4" rx="2" fill="#94a3b8"/>
  <rect x="318" y="194" width="16" height="3" rx="1.5" fill="#64748b"/>
  <!-- Decorative elements -->
  <circle cx="360" cy="70" r="14" fill="#14b8a6" opacity="0.15"/>
  <circle cx="35" cy="175" r="10" fill="#f59e0b" opacity="0.2"/>
</svg>
