<svg xmlns="http://www.w3.org/2000/svg" viewBox="0 0 400 240" fill="none">
  <rect width="400" height="240" fill="#1e293b"/>
  <!-- Column: To Do -->
  <rect x="55" y="50" width="90" height="150" rx="8" fill="#334155"/>
  <text x="100" y="72" text-anchor="middle" fill="#94a3b8" font-family="system-ui,sans-serif" font-size="11" font-weight="600">TO DO</text>
  <rect x="65" y="82" width="70" height="32" rx="5" fill="#475569"/>
  <rect x="65" y="122" width="70" height="32" rx="5" fill="#475569"/>
  <rect x="65" y="162" width="70" height="32" rx="5" fill="#64748b" opacity="0.6"/>
  <!-- Column: In Progress -->
  <rect x="155" y="50" width="90" height="150" rx="8" fill="#334155" stroke="#f59e0b" stroke-width="1.5"/>
  <text x="200" y="72" text-anchor="middle" fill="#f59e0b" font-family="system-ui,sans-serif" font-size="11" font-weight="600">IN PROGRESS</text>
  <rect x="165" y="82" width="70" height="32" rx="5" fill="#f59e0b" opacity="0.5"/>
  <circle cx="185" cy="98" r="6" fill="#fff" opacity="0.6"/>
  <rect x="165" y="122" width="70" height="32" rx="5" fill="#f59e0b" opacity="0.35"/>
  <!-- Column: Done -->
  <rect x="255" y="50" width="90" height="150" rx="8" fill="#334155" stroke="#14b8a6" stroke-width="1.5"/>
  <text x="300" y="72" text-anchor="middle" fill="#14b8a6" font-family="system-ui,sans-serif" font-size="11" font-weight="600">DONE</text>
  <rect x="265" y="82" width="70" height="32" rx="5" fill="#14b8a6" opacity="0.45"/>
  <path d="M280 98 L288 106 L305 89" stroke="#fff" stroke-width="2.5" fill="none" stroke-linecap="round"/>
  <rect x="265" y="122" width="70" height="32" rx="5" fill="#14b8a6" opacity="0.3"/>
  <!-- User avatar on card -->
  <circle cx="200" cy="98" r="8" fill="#1e293b"/>
  <!-- Decorative circles -->
  <circle cx="370" cy="60" r="15" fill="#14b8a6" opacity="0.2"/>
  <circle cx="30" cy="190" r="12" fill="#f59e0b" opacity="0.2"/>
</svg>
