<svg xmlns="http://www.w3.org/2000/svg" viewBox="0 0 400 240" fill="none">
  <rect width="400" height="240" fill="#1e293b"/>
  <!-- Central hub node -->
  <circle cx="200" cy="120" r="30" fill="#14b8a6" opacity="0.8"/>
  <circle cx="200" cy="120" r="18" fill="#1e293b"/>
  <circle cx="200" cy="120" r="8" fill="#14b8a6"/>
  <!-- Satellite nodes -->
  <circle cx="100" cy="80" r="22" fill="#334155" stroke="#14b8a6" stroke-width="2"/>
  <circle cx="100" cy="80" r="8" fill="#14b8a6" opacity="0.6"/>
  <circle cx="300" cy="80" r="22" fill="#334155" stroke="#14b8a6" stroke-width="2"/>
  <circle cx="300" cy="80" r="8" fill="#14b8a6" opacity="0.6"/>
  <circle cx="80" cy="170" r="22" fill="#334155" stroke="#f59e0b" stroke-width="2"/>
  <circle cx="80" cy="170" r="8" fill="#f59e0b" opacity="0.6"/>
  <circle cx="320" cy="170" r="22" fill="#334155" stroke="#f59e0b" stroke-width="2"/>
  <circle cx="320" cy="170" r="8" fill="#f59e0b" opacity="0.6"/>
  <circle cx="200" cy="200" r="18" fill="#334155" stroke="#64748b" stroke-width="2"/>
  <!-- Connection lines -->
  <line x1="122" y1="88" x2="172" y2="108" stroke="#14b8a6" stroke-width="2" opacity="0.6"/>
  <line x1="278" y1="88" x2="228" y2="108" stroke="#14b8a6" stroke-width="2" opacity="0.6"/>
  <line x1="98" y1="152" x2="178" y2="132" stroke="#f59e0b" stroke-width="2" opacity="0.5" stroke-dasharray="4 3"/>
  <line x1="302" y1="152" x2="222" y2="132" stroke="#f59e0b" stroke-width="2" opacity="0.5" stroke-dasharray="4 3"/>
  <line x1="200" y1="150" x2="200" y2="182" stroke="#64748b" stroke-width="2"/>
  <!-- Terminal icon on one node -->
  <rect x="290" y="72" width="20" height="14" rx="2" fill="#1e293b" opacity="0.5"/>
  <!-- Decorative ring -->
  <circle cx="200" cy="120" r="55" fill="none" stroke="#14b8a6" stroke-width="1" opacity="0.2" stroke-dasharray="6 4"/>
</svg>
