<svg xmlns="http://www.w3.org/2000/svg" viewBox="0 0 400 240" fill="none">
  <rect width="400" height="240" fill="#1e293b"/>
  <!-- Outlook envelope -->
  <rect x="60" y="70" width="120" height="90" rx="8" fill="#0078d4" opacity="0.9"/>
  <path d="M60 78 L120 118 L180 78" stroke="#fff" stroke-width="3" fill="none" opacity="0.8"/>
  <rect x="75" y="95" width="90" height="8" rx="2" fill="#fff" opacity="0.5"/>
  <rect x="75" y="110" width="60" height="6" rx="2" fill="#fff" opacity="0.35"/>
  <!-- Sync arrow -->
  <path d="M195 120 L235 120" stroke="#14b8a6" stroke-width="3" marker-end="url(#arrow)"/>
  <circle cx="215" cy="120" r="14" fill="#14b8a6" opacity="0.3"/>
  <path d="M208 120 L215 113 L222 120 L215 127 Z" fill="#14b8a6"/>
  <!-- CRM user card -->
  <rect x="250" y="65" width="100" height="100" rx="10" fill="#334155" stroke="#14b8a6" stroke-width="2"/>
  <circle cx="300" cy="100" r="22" fill="#14b8a6" opacity="0.6"/>
  <rect x="270" y="130" width="60" height="8" rx="2" fill="#94a3b8"/>
  <rect x="275" y="145" width="50" height="6" rx="2" fill="#64748b"/>
  <!-- Decorative shapes -->
  <circle cx="340" cy="50" r="20" fill="#0078d4" opacity="0.2"/>
  <polygon points="50,180 70,150 90,180" fill="#f59e0b" opacity="0.25"/>
</svg>
